<svg xmlns="http://www.w3.org/2000/svg" width="512" height="512" viewBox="0 0 512 512"><path d="M409.338 166.52c-10.416-54.96-58.666-95.776-115.78-95.776-35.1 0-67.632 15.285-89.872 41.584-37.148-9.906-76.08 11.78-86.933 48.78C78.16 172.44 50.6 208.16 50.6 249.567c0 50.853 41.37 92.222 93.222 92.222H369.18c50.85 0 92.22-41.37 92.22-92.22 0-35.915-20.46-67.846-52.062-83.05zM369.18 301.79H143.82c-29.794 0-53.22-23.426-53.22-52.22 0-34.08 27.65-60.08 62.185-53.817-11.536-39.596 44.13-61.93 64.64-32.348 5.158-14.582 25.824-52.662 76.132-52.662 38.027 0 77.36 26.08 78.664 84.982 25.364.098 49.18 18.432 49.18 53.844 0 28.794-23.425 52.22-52.22 52.22zm-90.59 61.665h-45.18v37.802h-33.89v40H312.48v-40H278.59v-37.802zm136.11 37.802h-79.63v40h79.63v-40zm-237.77 0H97.3v40h79.63v-40z"/></svg>