<svg xmlns="http://www.w3.org/2000/svg" width="512" height="512" viewBox="0 0 512 512"><path d="M261.807 359.975c.093-.338.205-.668.31-1.002H94.966v-236.5H416.73V264.39c21.974 8.08 37.738 37.087 44.966 59.552v-209.47c0-17.673-14.316-32-31.977-32H81.976c-17.66 0-31.977 14.327-31.977 32v252.5c0 17.673 14.315 32 31.977 32H279.48c-16.812-9.888-21.3-25.86-17.673-38.997zm6.488-128.25c10.955 0 21.5 6.966 24.962 18.57-4.438-3.41-9.63-5.074-14.868-5.074-5.31 0-10.666 1.71-15.335 5.044-9.28 6.623-13.383 17.898-9.807 28.588-14.427-10.34-14.494-31.912.042-42.288 4.634-3.307 9.863-4.84 15.005-4.84m12.038 27.774c4.645 0 9.22 2.17 12.12 6.244l36.207 50.723c1.062 1.49 2.737 2.285 4.437 2.285 1.094 0 2.197-.33 3.155-1.014 2.448-1.748 3.017-5.148 1.27-7.596l-8.925-12.525c4.036-1.025 8.938-2.252 14.364-3.578.748-.184 1.502-.27 2.248-.27 3.015 0 5.908 1.442 7.71 3.974l7.304 10.247c1.062 1.49 2.736 2.285 4.437 2.285 1.092 0 2.195-.328 3.152-1.012 2.447-1.748 3.018-5.148 1.272-7.6l-8.437-11.836c4.66-1.076 9.414-2.146 14.11-3.162.667-.145 1.337-.215 2.002-.215 3.02 0 5.913 1.45 7.712 3.975l6.204 8.705c1.062 1.49 2.736 2.285 4.437 2.285 1.094 0 2.197-.328 3.156-1.012 2.444-1.748 3.014-5.148 1.268-7.598l-6.95-9.756c1.408-.262 2.794-.514 4.145-.748 1.875-.326 3.64-.484 5.31-.484 11.207 0 18.13 7.11 25.796 17.865 19.752 27.714 14.275 47.23 34.16 75.132l-76.658 54.715c-41.372-30.848-77.09-40.74-88.626-44.62-10.99-3.696-18.092-10.75-15.647-19.606C283.403 356.85 291.865 354 299.295 354c.444 0 .885.01 1.32.03 11.64.53 21.08 4.02 21.08 4.02l-53.465-75.015c-4.77-6.695-3.214-15.992 3.474-20.766 2.62-1.87 5.64-2.77 8.63-2.77"/></svg>