<svg xmlns="http://www.w3.org/2000/svg" width="512" height="512" viewBox="0 0 512 512"><path d="M384.21 238.25c-42.964 0-77.794 34.828-77.794 77.79 0 42.965 34.83 77.792 77.793 77.792S462 359.005 462 316.042c0-42.964-34.828-77.792-77.79-77.792zm47.808 91.926h-33.673v33.673H372.34v-33.674h-33.674V304.17h33.673V270.5h26.005v33.67h33.673v26.006zm-127.34-86.89c-7.605 8.296-13.774 17.586-18.388 27.568h-20.966v-27.567h39.353zm4.92 150.546H50V118.168h378.578v99.58c-11.505-5.198-23.908-8.34-36.756-9.23v-53.595H86.754v202.154h197.72c5.35 13.002 13.273 24.943 23.515 35.185.53.53 1.068 1.05 1.608 1.57zM265.324 191.22h90.662v20.748c-6.332 1.706-12.478 3.987-18.373 6.817h-72.29V191.22zM170.3 265.295c-26.462-48.737-7.544-76.366 20.876-76.366 27.867 0 47.264 26.61 20.87 76.366-8.667 16.345 9.235 20.23 28.468 24.667 19.223 4.433 17.746 14.568 17.746 32.96H124.09c0-18.392-1.48-28.527 17.746-32.96 18.82-4.343 37.394-8.223 28.465-24.667z"/></svg>